<svg xmlns="http://www.w3.org/2000/svg" width="326" height="131" fill="none" viewBox="0 0 326 131">
  <g clip-path="url(#a)">
    <rect width="326" height="131" fill="url(#b)" rx="10"/>
    <path fill="#042030" d="M256.035 160c49.105 0 88.912-9.269 88.912-20.703s-39.807-20.703-88.912-20.703c-49.104 0-88.911 9.269-88.911 20.703S206.931 160 256.035 160Z" opacity=".25"/>
    <path fill="#4E2999" d="m325.667 39.387-69.632 23.812-69.702-23.812L153 87.858l103.035 35.259L359 87.858l-33.333-48.471Z"/>
    <path fill="#240F4F" d="m165.147 85.88 85.451 32.714-29.379-29.11s-48.233-11.66-56.072-3.604Zm181.777 0-85.451 32.714 29.378-29.11c-.07 0 48.163-11.66 56.073-3.604Z" opacity=".45"/>
    <path fill="#994EF8" d="M256.035 123.117 153 87.858v4.593l103.035 35.258L359 92.451v-4.593l-102.965 35.259Z"/>
    <path fill="#3B1E77" d="m201.163 144.314 11.935-31.302 38.418 13.143-50.353 18.159Z"/>
    <path fill="#3B1E77" d="m204.482 135.27 47.034-9.115-38.418-13.143-8.616 22.258Z" opacity=".45"/>
    <path fill="#994EF8" d="m256.035 124.53-54.872 19.784 4.096 4.31 50.776-18.088 50.706 18.088 4.166-4.31-54.872-19.784Z"/>
    <path fill="#3B1E77" d="m310.907 144.314-12.005-31.302-38.418 13.143 50.423 18.159Z"/>
    <path fill="#3B1E77" d="m307.518 135.27-47.034-9.115 38.418-13.143 8.616 22.258Z" opacity=".45"/>
    <path fill="#fff" fill-opacity=".5" d="M256.035 130.536a3.744 3.744 0 0 0 0-7.49 3.744 3.744 0 0 0 0 7.49Z"/>
    <path fill="#F5B304" d="m322.701 39.387-66.666 33.21-66.665-33.21c-3.037 4.027-27.472 44.797-27.472 44.797.283 0 .495.07.777.07 61.299 6.148 78.318 25.438 83.968 30.101 5.649 4.734 9.463 4.239 9.463 4.239s3.813.495 9.463-4.239c5.65-4.663 22.669-23.953 83.968-30.1.282 0 .494-.071.777-.071-.142 0-24.647-40.699-27.613-44.797Z"/>
    <path fill="#994EF8" d="M350.172 84.184c-.282 0-.494.07-.776.07-61.299 6.148-78.319 25.438-83.968 30.101-5.65 4.734-9.463 4.239-9.463 4.239s-3.814.495-9.463-4.239c-5.65-4.663-22.67-23.953-83.968-30.1-.283 0-.495-.071-.777-.071-.494.777 0 1.343 0 1.343 61.934 6.005 78.389 25.366 84.038 30.1 5.65 4.663 10.099 4.31 10.099 4.31s4.449.353 10.099-4.31c5.649-4.664 22.104-24.024 84.038-30.1.141 0 .636-.566.141-1.343Z"/>
    <path fill="#F5EFFB" d="M320.159 35.5c-34.11-8.196-64.194 19.855-64.194 19.855s-30.085-28.05-64.194-19.854c0 0-9.675 14.838-23.023 40.063 0 0 67.16 7.56 87.217 35.753 20.056-28.193 87.216-35.753 87.216-35.753C329.834 50.339 320.159 35.5 320.159 35.5Z"/>
    <path fill="#DFCBF4" d="M343.181 75.564s-67.16 7.56-87.216 35.753c-19.986-28.193-87.146-35.753-87.146-35.753s0 2.26-3.743 6.712c0 0 60.946 4.381 83.12 29.677 5.226 5.935 7.769 5.228 7.769 5.228s2.613.707 7.768-5.228c22.104-25.296 83.12-29.677 83.12-29.677-3.672-4.522-3.672-6.712-3.672-6.712Z"/>
    <path fill="#863ED5" d="M316.345 38.468s-25.494-6.5-60.38 20.562c-34.816-26.992-60.381-20.562-60.381-20.562L178.353 71.96c52.4 3.604 77.612 30.1 77.612 30.1s25.211-26.496 77.612-30.1l-17.232-33.492Zm-60.31 60.413s-23.587-24.165-73.586-28.9l14.477-30.1s25.07-4.875 59.109 20.703c34.039-25.578 59.11-20.703 59.11-20.703l14.477 30.1c-49.999 4.735-73.587 28.9-73.587 28.9Z"/>
    <path stroke="#863ED5" stroke-linecap="round" stroke-width="3" d="M262.462 84.25c9.416-6.948 38.841-22.323 58.615-20.204m-58.615.707c8.357-6.547 30.084-19.374 50.14-18.309m-50.14 28.201c9.063-7.05 32.626-20.864 54.378-19.717M250.456 84.25c-9.416-6.948-38.841-22.323-58.615-20.204m58.615.707c-8.356-6.547-30.084-19.374-50.14-18.309m50.14 28.201c-9.063-7.05-32.626-20.864-54.377-19.717" opacity=".2"/>
    <path fill="#54DAF5" d="M256.035 55.355s.707-2.472 2.048-1.766c0 0-.847 40.063.565 55.679.353 3.886 3.743 9.185 5.085 11.164h-1.766l-.494 1.625s-5.226-8.833-5.438-12.295c-1.059-15.545-.494-50.662 0-54.407Z"/>
  </g>
  <defs>
    <linearGradient id="b" x1="0" x2="90.645" y1="0" y2="225.575" gradientUnits="userSpaceOnUse">
      <stop stop-color="#DF98FA"/>
      <stop offset="1" stop-color="#9055FF"/>
    </linearGradient>
    <clipPath id="a">
      <rect width="326" height="131" fill="#fff" rx="10"/>
    </clipPath>
  </defs>
</svg>
